<?xml version="1.0" encoding="UTF-8" standalone="no"?>
<!-- 
     This logo is Copyright 2020 by Marta Meneghello, and can be
     distributed and modified under the same terms as QSoas itself. 
-->

<svg
   xmlns:dc="http://purl.org/dc/elements/1.1/"
   xmlns:cc="http://creativecommons.org/ns#"
   xmlns:rdf="http://www.w3.org/1999/02/22-rdf-syntax-ns#"
   xmlns:svg="http://www.w3.org/2000/svg"
   xmlns="http://www.w3.org/2000/svg"
   xmlns:sodipodi="http://sodipodi.sourceforge.net/DTD/sodipodi-0.dtd"
   xmlns:inkscape="http://www.inkscape.org/namespaces/inkscape"
   width="480"
   height="480"
   overflow="hidden"
   version="1.1"
   id="svg128"
   sodipodi:docname="QSoas-logo.svg"
   inkscape:version="0.92.4 (5da689c313, 2019-01-14)"
   style="overflow:hidden">
  <title
     id="title895">QSoas Log</title>
  <metadata
     id="metadata132">
    <rdf:RDF>
      <cc:Work
         rdf:about="">
        <dc:format>image/svg+xml</dc:format>
        <dc:type
           rdf:resource="http://purl.org/dc/dcmitype/StillImage" />
        <dc:title>QSoas Log</dc:title>
        <cc:license
           rdf:resource="" />
        <dc:creator>
          <cc:Agent>
            <dc:title>Marta Meneghello</dc:title>
          </cc:Agent>
        </dc:creator>
        <dc:rights>
          <cc:Agent>
            <dc:title>Copyright 2020 by Marta Meneghello</dc:title>
          </cc:Agent>
        </dc:rights>
      </cc:Work>
    </rdf:RDF>
  </metadata>
  <sodipodi:namedview
     pagecolor="#ffffff"
     bordercolor="#666666"
     borderopacity="1"
     objecttolerance="10"
     gridtolerance="10"
     guidetolerance="10"
     inkscape:pageopacity="0"
     inkscape:pageshadow="2"
     inkscape:window-width="2721"
     inkscape:window-height="1761"
     id="namedview130"
     showgrid="false"
     inkscape:zoom="2.8616092"
     inkscape:cx="200.20225"
     inkscape:cy="213.34483"
     inkscape:window-x="0"
     inkscape:window-y="0"
     inkscape:window-maximized="0"
     inkscape:current-layer="svg128"
     fit-margin-top="0"
     fit-margin-left="-10"
     fit-margin-right="-10"
     fit-margin-bottom="0" />
  <defs
     id="defs68">
    <linearGradient
       x1="564.992"
       y1="86.7174"
       x2="461.505"
       y2="284.617"
       gradientUnits="userSpaceOnUse"
       spreadMethod="reflect"
       id="fill9"
       gradientTransform="translate(-316.381,33.74128)">
      <stop
         offset="0"
         stop-color="#42C1FF"
         id="stop21" />
      <stop
         offset="0.25"
         stop-color="#42C1FF"
         id="stop23" />
      <stop
         offset="0.5"
         stop-color="#B9E8FF"
         id="stop25" />
      <stop
         offset="0.75"
         stop-color="#42C1FF"
         id="stop27" />
      <stop
         offset="1"
         stop-color="#42C1FF"
         id="stop29" />
    </linearGradient>
    <filter
       style="color-interpolation-filters:sRGB"
       inkscape:label="Drop Shadow"
       id="filter844">
      <feFlood
         flood-opacity="0.69999999999999996"
         flood-color="rgb(0,0,0)"
         result="flood"
         id="feFlood834" />
      <feComposite
         in="flood"
         in2="SourceGraphic"
         operator="in"
         result="composite1"
         id="feComposite836" />
      <feGaussianBlur
         in="composite1"
         stdDeviation="8"
         result="blur"
         id="feGaussianBlur838" />
      <feOffset
         dx="6"
         dy="6"
         result="offset"
         id="feOffset840" />
      <feComposite
         in="SourceGraphic"
         in2="offset"
         operator="over"
         result="composite2"
         id="feComposite842" />
    </filter>
    <filter
       style="color-interpolation-filters:sRGB"
       inkscape:label="Drop Shadow"
       id="filter856">
      <feFlood
         flood-opacity="0.69999999999999996"
         flood-color="rgb(0,0,0)"
         result="flood"
         id="feFlood846" />
      <feComposite
         in="flood"
         in2="SourceGraphic"
         operator="in"
         result="composite1"
         id="feComposite848" />
      <feGaussianBlur
         in="composite1"
         stdDeviation="4"
         result="blur"
         id="feGaussianBlur850" />
      <feOffset
         dx="6"
         dy="6"
         result="offset"
         id="feOffset852" />
      <feComposite
         in="SourceGraphic"
         in2="offset"
         operator="over"
         result="composite2"
         id="feComposite854" />
    </filter>
  </defs>
  <path
     inkscape:connector-curvature="0"
     id="path86"
     d="m 247.079,154.47528 c 16.1031,0.68818 31.54518,-5.14165 46.444,-10.531 -5.86091,8.22141 -7.57086,22.6716 -15.25285,27.14833 -17.10551,0.0452 -34.67364,3.9652 -51.31352,-1.94221 -8.74608,-1.82923 -17.63884,-8.59704 -26.68164,-5.1604 -9.15642,6.82007 -6.26625,20.2978 -2.28299,29.29028 7.04863,14.31374 18.18749,26.19884 25.41709,40.36645 2.98116,10.2174 6.43884,20.82342 4.09203,31.53405 -0.18305,9.70396 -3.83503,19.19463 -7.31187,28.20023 -5.44615,9.37321 -8.92802,21.39868 -19.06895,26.79171 -9.91922,5.5113 -15.52449,-7.26032 -20.49582,-13.51149 -7.83858,-12.22821 -20.53958,-22.27538 -35.59268,-22.49236 -16.38748,-0.74848 -31.92612,5.24903 -47.5478,9.27641 5.67682,-8.9798 8.87882,-22.83324 15.59964,-29.05264 20.19611,2.14695 41.86312,-0.94739 60.46736,9.07938 7.72905,2.91742 15.66069,11.82332 24.32849,7.59596 10.25949,-8.82387 8.53708,-24.33557 3.21958,-35.3921 -8.19677,-16.87823 -22.44819,-30.41865 -28.31851,-48.45052 -2.64826,-10.02906 -3.42296,-20.65635 -0.94745,-30.78928 2.48798,-13.71318 8.66301,-26.97814 17.47136,-37.79384 7.71644,-9.26798 19.26645,-0.80911 24.45735,6.67654 8.67488,9.68748 19.806,18.41691 33.31718,19.1565 z"
     style="fill:url(#fill9);fill-rule:evenodd;stroke:none;stroke-width:2;stroke-miterlimit:4;stroke-dasharray:none;filter:url(#filter844);stroke-opacity:1"
     inkscape:label="The S" />
  <g
     id="g1352"
     inkscape:label="The Q"
     style="fill:#0c5171;fill-opacity:1;stroke:#0c5171;stroke-width:6;stroke-miterlimit:4;stroke-dasharray:none;stroke-opacity:1;filter:url(#filter856)"
     transform="translate(-34.380996,-16.258723)">
    <g
       id="g1011"
       transform="matrix(1.0502201,0,0,1.0536585,-441.89179,-7.213893)"
       style="fill:#0c5171;fill-opacity:1;stroke:#0c5171;stroke-width:5.70375877;stroke-miterlimit:4;stroke-dasharray:none;stroke-opacity:1">
      <path
         id="path43"
         d="m 573.76027,362.99567 28.519,10.045 -12.556,35.649 -28.519,-10.045 z"
         style="fill:#0c5171;fill-opacity:1;fill-rule:evenodd;stroke:#0c5171;stroke-width:5.70375877;stroke-miterlimit:4;stroke-dasharray:none;stroke-opacity:1"
         inkscape:connector-curvature="0" />
      <path
         id="path45-3"
         d="m 626.02327,379.32267 30.206,-1.367 1.709,37.756 -30.205,1.368 z"
         style="fill:#0c5171;fill-opacity:1;fill-rule:evenodd;stroke:#0c5171;stroke-width:5.70375877;stroke-miterlimit:4;stroke-dasharray:none;stroke-opacity:1"
         inkscape:connector-curvature="0" />
      <path
         id="path47"
         d="m 533.30527,329.35267 22.759,19.906 -24.881,28.449 -22.76,-19.905 z"
         style="fill:#0c5171;fill-opacity:1;fill-rule:evenodd;stroke:#0c5171;stroke-width:5.70375877;stroke-miterlimit:4;stroke-dasharray:none;stroke-opacity:1"
         inkscape:connector-curvature="0" />
      <path
         id="path49-1"
         d="m 679.06827,375.71567 27.786,-11.925 14.906,34.732 -27.786,11.925 z"
         style="fill:#0c5171;fill-opacity:1;fill-rule:evenodd;stroke:#0c5171;stroke-width:5.70375877;stroke-miterlimit:4;stroke-dasharray:none;stroke-opacity:1"
         inkscape:connector-curvature="0" />
      <path
         id="path51"
         d="m 505.92527,283.92767 15.682,25.852 -32.315,19.602 -15.682,-25.852 z"
         style="fill:#0c5171;fill-opacity:1;fill-rule:evenodd;stroke:#0c5171;stroke-width:5.70375877;stroke-miterlimit:4;stroke-dasharray:none;stroke-opacity:1"
         inkscape:connector-curvature="0" />
      <path
         id="path53-7"
         d="m 498.28527,238.09867 4.856,29.844 -37.3043,6.07 -4.8561,-29.844 z"
         style="fill:#0c5171;fill-opacity:1;fill-rule:evenodd;stroke:#0c5171;stroke-width:5.70375877;stroke-miterlimit:4;stroke-dasharray:none;stroke-opacity:1"
         inkscape:connector-curvature="0" />
      <path
         id="path55"
         d="m 504.55027,189.29667 -5.66,29.702 -37.1274,-7.076 5.6604,-29.702 z"
         style="fill:#0c5171;fill-opacity:1;fill-rule:evenodd;stroke:#0c5171;stroke-width:5.70375877;stroke-miterlimit:4;stroke-dasharray:none;stroke-opacity:1"
         inkscape:connector-curvature="0" />
    </g>
    <path
       id="path1183-7"
       style="opacity:1;vector-effect:none;fill:#0c5171;fill-opacity:1;stroke:#0c5171;stroke-width:6;stroke-linecap:butt;stroke-linejoin:miter;stroke-miterlimit:4;stroke-dasharray:none;stroke-dashoffset:0;stroke-opacity:1"
       d="m 85.94591,157.98147 c -39.24509,70.15221 -23.1515,158.26525 38.36337,210.04105 61.51487,51.7758 151.1452,52.6484 213.67968,2.08006 4.94405,-3.30404 7.70798,-9.05554 7.23954,-15.01953 -0.46844,-5.96399 -4.09539,-11.20006 -9.47145,-13.67354 -5.37606,-2.47348 -11.65354,-1.79435 -16.39306,1.7735 -49.77828,40.84222 -121.57872,40.69946 -171.19366,-0.34037 -49.61494,-41.03983 -63.10222,-111.44423 -32.14518,-167.66336 4.5996,-7.49756 1.72085,-17.43932 -6.46644,-22.17335 -8.18729,-4.73403 -18.67899,-2.52328 -23.6128,4.97554"
       inkscape:connector-curvature="0"
       sodipodi:nodetypes="cscsscscsc" />
    <path
       id="path1204-3"
       style="opacity:1;vector-effect:none;fill:#0c5171;fill-opacity:1;stroke:#0c5171;stroke-width:6;stroke-linecap:butt;stroke-linejoin:miter;stroke-miterlimit:4;stroke-dasharray:none;stroke-dashoffset:0;stroke-opacity:1"
       d="m 485.25824,423.38236 c 8.80492,-4.27208 14.71013,-13.04776 15.48157,-23.00703 0.77144,-9.95927 -3.70868,-19.58127 -11.74546,-25.22582 l -65.11317,-42.36005 c -8.35494,-4.46837 -18.36953,-4.18264 -26.44422,0.65362 L 378.90908,321.49627 C 414.92499,257.00954 404.4738,176.56836 353.17297,123.40938 301.87214,70.250406 221.80411,56.89373 156.18301,90.473802 c -12.89057,-7.080103 -29.04853,-4.521673 -39.3044,6.206909 -10.25587,10.728579 -12.0841,26.985359 -4.46733,39.723889 7.61677,12.73854 22.80289,18.82191 37.10769,14.86489 14.3048,-3.95702 24.20564,-16.98 24.12974,-31.6228 54.10343,-26.583909 119.49915,-13.73965 159.51197,31.54111 40.01281,45.28076 44.71215,111.76001 11.49769,162.27188 -3.83057,6.51218 -1.5695,14.4258 5.33538,18.61905 l 34.26047,21.97256 c -1.3343,11.30872 4.16391,22.39391 13.94139,27.91243 l 59.90188,39.10135 c 7.99578,5.70548 18.35583,6.58937 27.16075,2.31729 z"
       inkscape:connector-curvature="0"
       sodipodi:nodetypes="ssccccscssscscccccs" />
  </g>
</svg>
